<mxfile host="app.diagrams.net" modified="2022-02-23T13:28:30.497Z" agent="5.0 (X11; Linux x86_64) AppleWebKit/537.36 (KHTML, like Gecko) Chrome/98.0.4758.102 Safari/537.36" etag="vLsrumK9Lz515OzTerVo" version="16.6.2" type="github">
  <diagram id="RvSaMnH1cylcwwqEnL6V" name="Page-1">
    <mxGraphModel dx="1296" dy="699" grid="1" gridSize="10" guides="1" tooltips="1" connect="1" arrows="1" fold="1" page="1" pageScale="1" pageWidth="827" pageHeight="1169" math="0" shadow="0">
      <root>
        <mxCell id="0" />
        <mxCell id="1" parent="0" />
        <mxCell id="Ylwd_mfG_yCWvWhk9YIJ-1" style="edgeStyle=orthogonalEdgeStyle;rounded=0;orthogonalLoop=1;jettySize=auto;html=1;exitX=0.5;exitY=1;exitDx=0;exitDy=0;entryX=0.5;entryY=0;entryDx=0;entryDy=0;strokeColor=none;" edge="1" parent="1" source="Ylwd_mfG_yCWvWhk9YIJ-2" target="Ylwd_mfG_yCWvWhk9YIJ-3">
          <mxGeometry relative="1" as="geometry" />
        </mxCell>
        <mxCell id="Ylwd_mfG_yCWvWhk9YIJ-2" value="&lt;font face=&quot;Times New Roman&quot;&gt;&lt;span style=&quot;font-size: 24px&quot;&gt;Dynamics&lt;/span&gt;&lt;/font&gt;" style="rounded=0;whiteSpace=wrap;html=1;" vertex="1" parent="1">
          <mxGeometry x="310" y="70" width="120" height="60" as="geometry" />
        </mxCell>
        <mxCell id="Ylwd_mfG_yCWvWhk9YIJ-3" value="&lt;font face=&quot;Times New Roman&quot; style=&quot;font-size: 24px&quot;&gt;Velocity&lt;/font&gt;" style="rounded=0;whiteSpace=wrap;html=1;" vertex="1" parent="1">
          <mxGeometry x="310" y="180" width="120" height="60" as="geometry" />
        </mxCell>
        <mxCell id="Ylwd_mfG_yCWvWhk9YIJ-4" value="&lt;font face=&quot;Times New Roman&quot; style=&quot;font-size: 24px&quot;&gt;Position&lt;/font&gt;" style="rounded=0;whiteSpace=wrap;html=1;" vertex="1" parent="1">
          <mxGeometry x="470" y="180" width="120" height="60" as="geometry" />
        </mxCell>
        <mxCell id="Ylwd_mfG_yCWvWhk9YIJ-5" value="&lt;font face=&quot;Times New Roman&quot; style=&quot;font-size: 24px&quot;&gt;Acceleration&lt;/font&gt;" style="rounded=0;whiteSpace=wrap;html=1;" vertex="1" parent="1">
          <mxGeometry x="130" y="180" width="140" height="60" as="geometry" />
        </mxCell>
        <mxCell id="Ylwd_mfG_yCWvWhk9YIJ-6" value="&lt;font face=&quot;Times New Roman&quot;&gt;&lt;span style=&quot;font-size: 24px&quot;&gt;Kinetics&lt;/span&gt;&lt;/font&gt;" style="rounded=0;whiteSpace=wrap;html=1;" vertex="1" parent="1">
          <mxGeometry x="220" y="290" width="120" height="60" as="geometry" />
        </mxCell>
        <mxCell id="Ylwd_mfG_yCWvWhk9YIJ-7" value="&lt;font face=&quot;Times New Roman&quot; style=&quot;font-size: 24px&quot;&gt;Kinematics&lt;/font&gt;" style="rounded=0;whiteSpace=wrap;html=1;" vertex="1" parent="1">
          <mxGeometry x="410" y="290" width="120" height="60" as="geometry" />
        </mxCell>
        <mxCell id="Ylwd_mfG_yCWvWhk9YIJ-8" value="" style="shape=crossbar;whiteSpace=wrap;html=1;rounded=1;" vertex="1" parent="1">
          <mxGeometry x="190" y="145" width="340" height="20" as="geometry" />
        </mxCell>
        <mxCell id="Ylwd_mfG_yCWvWhk9YIJ-9" value="" style="shape=crossbar;whiteSpace=wrap;html=1;rounded=1;" vertex="1" parent="1">
          <mxGeometry x="200" y="250" width="150" height="20" as="geometry" />
        </mxCell>
        <mxCell id="Ylwd_mfG_yCWvWhk9YIJ-10" value="" style="shape=crossbar;whiteSpace=wrap;html=1;rounded=1;" vertex="1" parent="1">
          <mxGeometry x="394" y="250" width="136" height="20" as="geometry" />
        </mxCell>
      </root>
    </mxGraphModel>
  </diagram>
</mxfile>
